<mxfile host="app.diagrams.net" modified="2024-04-10T02:50:01.736Z" agent="Mozilla/5.0 (Macintosh; Intel Mac OS X 10_15_7) AppleWebKit/537.36 (KHTML, like Gecko) Chrome/123.0.0.0 Safari/537.36" etag="pablLJ7CMKYbv4zKJPZg" version="22.1.16" type="github">
  <diagram name="Page-1" id="RP75BphAeqUrfk1uYmjC">
    <mxGraphModel dx="1434" dy="820" grid="1" gridSize="10" guides="1" tooltips="1" connect="1" arrows="1" fold="1" page="1" pageScale="1" pageWidth="827" pageHeight="1169" math="0" shadow="0">
      <root>
        <mxCell id="0" />
        <mxCell id="1" parent="0" />
        <mxCell id="knyLBU7OoGd4yJt1n9Tx-1" value="万得工坊" style="rounded=1;whiteSpace=wrap;html=1;fillColor=#ffe6cc;strokeColor=#d79b00;" parent="1" vertex="1">
          <mxGeometry x="200" y="330" width="440" height="30" as="geometry" />
        </mxCell>
        <mxCell id="knyLBU7OoGd4yJt1n9Tx-2" value="租户1" style="rounded=1;whiteSpace=wrap;html=1;fillColor=#d5e8d4;strokeColor=#82b366;" parent="1" vertex="1">
          <mxGeometry x="200" y="370" width="360" height="30" as="geometry" />
        </mxCell>
        <mxCell id="knyLBU7OoGd4yJt1n9Tx-3" value="用户1" style="rounded=1;whiteSpace=wrap;html=1;fillColor=#f8cecc;strokeColor=#b85450;" parent="1" vertex="1">
          <mxGeometry x="200" y="410" width="175" height="30" as="geometry" />
        </mxCell>
        <mxCell id="knyLBU7OoGd4yJt1n9Tx-4" value="商城1" style="rounded=1;whiteSpace=wrap;html=1;fillColor=#dae8fc;strokeColor=#6c8ebf;" parent="1" vertex="1">
          <mxGeometry x="200" y="450" width="85" height="30" as="geometry" />
        </mxCell>
        <mxCell id="knyLBU7OoGd4yJt1n9Tx-5" value="模版1" style="rounded=1;whiteSpace=wrap;html=1;fillColor=#e1d5e7;strokeColor=#9673a6;" parent="1" vertex="1">
          <mxGeometry x="200" y="490" width="40" height="30" as="geometry" />
        </mxCell>
        <mxCell id="knyLBU7OoGd4yJt1n9Tx-6" value="模版1" style="rounded=1;whiteSpace=wrap;html=1;fillColor=#e1d5e7;strokeColor=#9673a6;" parent="1" vertex="1">
          <mxGeometry x="290" y="490" width="40" height="30" as="geometry" />
        </mxCell>
        <mxCell id="knyLBU7OoGd4yJt1n9Tx-7" value="模版2" style="rounded=1;whiteSpace=wrap;html=1;fillColor=#e1d5e7;strokeColor=#9673a6;" parent="1" vertex="1">
          <mxGeometry x="335" y="490" width="40" height="30" as="geometry" />
        </mxCell>
        <mxCell id="knyLBU7OoGd4yJt1n9Tx-8" value="用户2" style="rounded=1;whiteSpace=wrap;html=1;fillColor=#f8cecc;strokeColor=#b85450;" parent="1" vertex="1">
          <mxGeometry x="385" y="410" width="175" height="30" as="geometry" />
        </mxCell>
        <mxCell id="knyLBU7OoGd4yJt1n9Tx-9" value="商城1" style="rounded=1;whiteSpace=wrap;html=1;fillColor=#dae8fc;strokeColor=#6c8ebf;" parent="1" vertex="1">
          <mxGeometry x="385" y="450" width="85" height="30" as="geometry" />
        </mxCell>
        <mxCell id="knyLBU7OoGd4yJt1n9Tx-10" value="模版1" style="rounded=1;whiteSpace=wrap;html=1;fillColor=#e1d5e7;strokeColor=#9673a6;" parent="1" vertex="1">
          <mxGeometry x="385" y="490" width="40" height="30" as="geometry" />
        </mxCell>
        <mxCell id="knyLBU7OoGd4yJt1n9Tx-11" value="模版2" style="rounded=1;whiteSpace=wrap;html=1;fillColor=#e1d5e7;strokeColor=#9673a6;" parent="1" vertex="1">
          <mxGeometry x="430" y="490" width="40" height="30" as="geometry" />
        </mxCell>
        <mxCell id="knyLBU7OoGd4yJt1n9Tx-12" value="模版1" style="rounded=1;whiteSpace=wrap;html=1;fillColor=#e1d5e7;strokeColor=#9673a6;" parent="1" vertex="1">
          <mxGeometry x="475" y="490" width="40" height="30" as="geometry" />
        </mxCell>
        <mxCell id="knyLBU7OoGd4yJt1n9Tx-13" value="模版2" style="rounded=1;whiteSpace=wrap;html=1;fillColor=#e1d5e7;strokeColor=#9673a6;" parent="1" vertex="1">
          <mxGeometry x="520" y="490" width="40" height="30" as="geometry" />
        </mxCell>
        <mxCell id="knyLBU7OoGd4yJt1n9Tx-14" value="商城2" style="rounded=1;whiteSpace=wrap;html=1;fillColor=#dae8fc;strokeColor=#6c8ebf;" parent="1" vertex="1">
          <mxGeometry x="475" y="450" width="85" height="30" as="geometry" />
        </mxCell>
        <mxCell id="knyLBU7OoGd4yJt1n9Tx-15" value="租户n" style="rounded=1;whiteSpace=wrap;html=1;fillColor=#f5f5f5;fontColor=#333333;strokeColor=#666666;" parent="1" vertex="1">
          <mxGeometry x="570" y="370" width="70" height="30" as="geometry" />
        </mxCell>
        <mxCell id="knyLBU7OoGd4yJt1n9Tx-16" value="用户n" style="rounded=1;whiteSpace=wrap;html=1;fillColor=#f5f5f5;fontColor=#333333;strokeColor=#666666;" parent="1" vertex="1">
          <mxGeometry x="570" y="410" width="70" height="30" as="geometry" />
        </mxCell>
        <mxCell id="knyLBU7OoGd4yJt1n9Tx-17" value="商城n" style="rounded=1;whiteSpace=wrap;html=1;fillColor=#f5f5f5;fontColor=#333333;strokeColor=#666666;" parent="1" vertex="1">
          <mxGeometry x="570" y="450" width="70" height="30" as="geometry" />
        </mxCell>
        <mxCell id="knyLBU7OoGd4yJt1n9Tx-18" value="模版n" style="rounded=1;whiteSpace=wrap;html=1;fillColor=#f5f5f5;fontColor=#333333;strokeColor=#666666;" parent="1" vertex="1">
          <mxGeometry x="570" y="490" width="70" height="30" as="geometry" />
        </mxCell>
        <mxCell id="knyLBU7OoGd4yJt1n9Tx-19" value="商城2" style="rounded=1;whiteSpace=wrap;html=1;fillColor=#dae8fc;strokeColor=#6c8ebf;" parent="1" vertex="1">
          <mxGeometry x="290" y="450" width="85" height="30" as="geometry" />
        </mxCell>
        <mxCell id="knyLBU7OoGd4yJt1n9Tx-20" value="模版2" style="rounded=1;whiteSpace=wrap;html=1;fillColor=#e1d5e7;strokeColor=#9673a6;" parent="1" vertex="1">
          <mxGeometry x="245" y="490" width="40" height="30" as="geometry" />
        </mxCell>
      </root>
    </mxGraphModel>
  </diagram>
</mxfile>
